<?xml version="1.0" encoding="utf-8"?>
<!-- Generator: Adobe Illustrator 18.0.0, SVG Export Plug-In . SVG Version: 6.00 Build 0)  -->
<!DOCTYPE svg PUBLIC "-//W3C//DTD SVG 1.1//EN" "http://www.w3.org/Graphics/SVG/1.1/DTD/svg11.dtd">
<svg version="1.1" id="Layer_1" xmlns="http://www.w3.org/2000/svg" xmlns:xlink="http://www.w3.org/1999/xlink" x="0px" y="0px"
	 viewBox="0 0 376.7 359.7" style="enable-background:new 0 0 376.7 359.7;" xml:space="preserve">
<style type="text/css">
	.st0{fill:#082644;}
	.st1{fill:#80CAF0;}
	.st2{fill:none;stroke:#FFFFFF;stroke-width:0.6459;stroke-linecap:round;stroke-linejoin:round;}
	.st3{fill:none;stroke:#FFFFFF;stroke-width:0.6459;stroke-linecap:round;stroke-linejoin:round;stroke-dasharray:2.5987,3.8981;}
	.st4{fill:none;stroke:#FFFFFF;stroke-width:0.6459;stroke-linecap:round;stroke-linejoin:round;stroke-dasharray:2.2311,3.3466;}
	.st5{fill:none;stroke:#FFFFFF;stroke-width:0.6459;stroke-linecap:round;stroke-linejoin:round;stroke-dasharray:2.6523,3.9785;}
	.st6{fill:none;stroke:#FFFFFF;stroke-width:0.6459;stroke-linecap:round;stroke-linejoin:round;stroke-dasharray:2.9863,4.4795;}
	.st7{fill:none;stroke:#FFFFFF;stroke-width:0.6459;stroke-linecap:round;stroke-linejoin:round;stroke-dasharray:2.602,3.903;}
	.st8{fill:#FFFFFF;}
	.st9{fill:#277EAA;}
	.st10{fill:#00537D;}
	.st11{fill:#0C638F;}
	.st12{fill:#10436D;}
	.st13{fill:#006991;}
	.st14{fill:#00AEEF;}
	.st15{fill:#008BBF;}
	.st16{fill:#A07C46;}
	.st17{fill:#755522;}
	.st18{fill:none;stroke:#755522;stroke-width:1.2304;stroke-miterlimit:10;}
	.st19{fill:#289AD6;}
</style>
<path class="st0" d="M249.9,117.7h-61h-60.4c0,8.4-6.9,15.4-15.9,16.4c5.7,126.2,76.2,154,76.2,154s70.6-27.8,76.3-154.1
	C256.5,132.7,249.9,125.9,249.9,117.7z"/>
<path class="st1" d="M188.9,202.7l0-84.9h-60.4c0,0,0.1,13.2-15.9,16.4c0,0,0,31.5,11.4,68.8L188.9,202.7z"/>
<path class="st1" d="M188.9,202.7l0,85.5c0,0,46.9-20.3,64.8-85.2L188.9,202.7z"/>
<g>
	<g>
		<path class="st2" d="M190,282.6c-0.4,0.2-0.8,0.4-1.1,0.6c-0.3-0.2-0.7-0.4-1.1-0.6"/>
		<path class="st3" d="M184.3,280.6c-6.5-4-17.2-11.8-28-25.3c-27.4-34.3-36.2-79.9-38.5-114.4"/>
		<path class="st2" d="M117.7,138.9c0-0.4-0.1-0.9-0.1-1.3c0.4-0.1,0.8-0.3,1.2-0.4"/>
		<path class="st4" d="M121.9,135.8c4.6-2.5,8.1-6.3,10-10.9"/>
		<path class="st2" d="M132.5,123.4c0.1-0.4,0.2-0.8,0.3-1.2h1.3"/>
		<line class="st5" x1="138.1" y1="122.2" x2="242.2" y2="122.2"/>
		<path class="st2" d="M244.2,122.2h1.3c0.1,0.4,0.2,0.8,0.3,1.2"/>
		<path class="st6" d="M247.6,127.5c2.1,3.6,5.2,6.6,9.1,8.5"/>
		<path class="st2" d="M258.8,137c0.4,0.2,0.8,0.3,1.2,0.4c0,0.4,0,0.9-0.1,1.3"/>
		<path class="st7" d="M259.7,142.6c-2.5,34.3-11.4,78.9-38.3,112.7C209.6,270,198,278,191.7,281.6"/>
	</g>
</g>
<polygon class="st8" points="169.8,190.4 169.8,211.9 188.9,222.8 207.9,211.9 207.9,190.6 188.9,178.4 "/>
<path class="st9" d="M204.9,240.7l18.2-19.7c0,0-0.1,0-0.1,0c0.2-1.4-0.3-2.9-1.4-3.9c-1.8-1.7-4.7-1.6-6.3,0.3s-1.6,4.7,0.3,6.3
	c0,0,0.1,0.1,0.1,0.1l-8.5,9.2c-1.8-1.7-4.7-1.6-6.3,0.3s-1.6,4.7,0.3,6.3C202.1,240.6,203.6,241,204.9,240.7z"/>
<path class="st10" d="M204.8,240.7L223,221c0,0,0,0.1,0,0.1c1.4-0.3,2.9,0.1,4,1.1c1.8,1.7,1.9,4.5,0.3,6.3
	c-1.7,1.8-4.5,1.9-6.3,0.3c0,0-0.1-0.1-0.1-0.1l-8.5,9.2c1.8,1.7,1.9,4.5,0.3,6.3c-1.7,1.8-4.5,1.9-6.3,0.3
	C205.2,243.4,204.7,242,204.8,240.7z"/>
<g>
	
		<rect x="150.4" y="225.4" transform="matrix(0.9099 0.4148 -0.4148 0.9099 109.6768 -47.8049)" class="st9" width="29" height="6.3"/>
	
		<ellipse transform="matrix(0.9099 0.4148 -0.4148 0.9099 110.6153 -47.1037)" class="st9" cx="163.7" cy="231.1" rx="14.5" ry="3.4"/>
	
		<ellipse transform="matrix(0.9099 0.4148 -0.4148 0.9099 108.6003 -48.6091)" class="st9" cx="166.2" cy="225.7" rx="14.5" ry="3.4"/>
	
		<rect x="161.9" y="228.2" transform="matrix(0.9099 0.4148 -0.4148 0.9099 111.0133 -46.4949)" class="st1" width="1.2" height="8.3"/>
	<circle class="st1" cx="161.6" cy="234.4" r="2.7"/>
	
		<ellipse transform="matrix(0.9099 0.4148 -0.4148 0.9099 108.803 -48.3868)" class="st11" cx="165.8" cy="226.3" rx="13.3" ry="2.7"/>
</g>
<g>
	
		<ellipse transform="matrix(0.9586 -0.2847 0.2847 0.9586 -36.288 45.1667)" class="st11" cx="137.2" cy="147.4" rx="2.4" ry="4.7"/>
	
		<ellipse transform="matrix(0.9996 -2.838849e-02 2.838849e-02 0.9996 -3.9932 4.1234)" class="st11" cx="143.2" cy="142.7" rx="2.4" ry="4.7"/>
	
		<ellipse transform="matrix(-0.9586 -0.2847 0.2847 -0.9586 265.7623 333.4818)" class="st9" cx="157.1" cy="147.4" rx="2.4" ry="4.7"/>
	
		<ellipse transform="matrix(-0.9996 -2.838841e-02 2.838841e-02 -0.9996 297.5733 289.619)" class="st9" cx="150.8" cy="142.7" rx="2.4" ry="4.7"/>
	<path class="st11" d="M145.8,148.7L145.8,148.7c-6,1.1-6.7,8.3-6.7,8.3c0,5.5,4.5,2.6,4.5,2.6c1.5-1,2.7-1.3,3.4-1.4v-9.6
		C146.7,148.7,146.3,148.7,145.8,148.7z"/>
	<path class="st9" d="M148.1,148.7L148.1,148.7c6,1.1,6.7,8.3,6.7,8.3c0,5.5-4.5,2.6-4.5,2.6c-1.5-1-2.7-1.3-3.4-1.4v-9.6
		C147.3,148.7,147.7,148.7,148.1,148.7z"/>
</g>
<g>
	<ellipse transform="matrix(0.9586 -0.2847 0.2847 0.9586 -41.8137 51.5591)" class="st11" cx="156.5" cy="169.6" rx="2" ry="4"/>
	
		<ellipse transform="matrix(0.9996 -2.838849e-02 2.838849e-02 0.9996 -4.6379 4.6514)" class="st11" cx="161.5" cy="165.7" rx="2" ry="4"/>
	<ellipse transform="matrix(-0.9586 -0.2847 0.2847 -0.9586 290.8576 381.5421)" class="st9" cx="173.2" cy="169.6" rx="2" ry="4"/>
	
		<ellipse transform="matrix(-0.9996 -2.838841e-02 2.838841e-02 -0.9996 331.0083 336.0264)" class="st9" cx="167.9" cy="165.7" rx="2" ry="4"/>
	<path class="st11" d="M163.7,170.7L163.7,170.7c-5.1,0.9-5.6,7-5.6,7c0,4.6,3.8,2.2,3.8,2.2c1.3-0.9,2.2-1.1,2.9-1.2v-8
		C164.4,170.7,164.1,170.7,163.7,170.7z"/>
	<path class="st9" d="M165.6,170.7L165.6,170.7c5.1,0.9,5.6,7,5.6,7c0,4.6-3.8,2.2-3.8,2.2c-1.3-0.9-2.2-1.1-2.9-1.2v-8
		C164.9,170.7,165.2,170.7,165.6,170.7z"/>
</g>
<circle class="st12" cx="221.1" cy="144" r="9.8"/>
<rect x="211.3" y="148.2" class="st10" width="19.6" height="27.7"/>
<rect x="221.1" y="148.2" class="st11" width="9.8" height="27.7"/>
<circle class="st12" cx="221.3" cy="157.4" r="7.5"/>
<path class="st11" d="M221.3,162.6c-2.9,0-5.3-2.4-5.3-5.3s2.4-5.3,5.3-5.3s5.3,2.4,5.3,5.3S224.2,162.6,221.3,162.6z"/>
<path class="st12" d="M221.3,160.4c-1.7,0-3.1-1.4-3.1-3.1c0-1.7,1.4-3.1,3.1-3.1s3.1,1.4,3.1,3.1
	C224.4,159.1,223,160.4,221.3,160.4z"/>
<rect x="208.3" y="142.3" class="st12" width="26" height="5.9"/>
<circle class="st12" cx="221.1" cy="134.2" r="2.4"/>
<rect x="208.1" y="175.6" class="st12" width="26" height="5.9"/>
<g>
	
		<rect x="205.4" y="156.4" transform="matrix(4.369320e-03 -1 1 4.369320e-03 51.4148 366.3647)" class="st10" width="8.5" height="1.9"/>
	<path class="st10" d="M205.5,157.3c0,1.8,1.4,3.2,3.2,3.2l0-6.4C206.9,154.1,205.5,155.6,205.5,157.3z"/>
</g>
<g>
	
		<rect x="228.1" y="156.4" transform="matrix(-4.369289e-03 -1 1 -4.369289e-03 76.0689 390.462)" class="st11" width="8.5" height="1.9"/>
	<path class="st11" d="M236.6,157.3c0,1.8-1.4,3.2-3.2,3.2l0-6.4C235.2,154.1,236.6,155.6,236.6,157.3z"/>
</g>
<g>
	<g>
		<path class="st13" d="M187.9,201.7c0-0.1-0.1-0.3-0.2-0.4l-15.4-8.9c-0.1-0.1-0.2,0-0.2,0.1v1.5c0,0.1,0.1,0.3,0.2,0.4l13.7,7.9
			c0.1,0.1,0.2,0.3,0.2,0.4l0,13.7c0,0.1-0.1,0.2-0.2,0.1l-12-6.9c-0.1-0.1-0.2-0.3-0.2-0.4v-9.4c0-0.1,0.1-0.2,0.2-0.1l8.5,4.9
			c0.1,0.1,0.2,0.3,0.2,0.4v5.4c0,0.1-0.1,0.2-0.2,0.1l-4.9-2.8c-0.1-0.1-0.2-0.3-0.2-0.4v-1.4c0-0.1,0.1-0.2,0.2-0.1l3.2,1.8
			c0.1,0.1,0.2,0,0.2-0.1V206c0-0.1-0.1-0.3-0.2-0.4l-4.9-2.9c-0.1-0.1-0.2,0-0.2,0.1v5.4c0,0.1,0.1,0.3,0.2,0.4l8.4,4.8
			c0.1,0.1,0.2,0,0.2-0.1V204c0-0.1-0.1-0.3-0.2-0.4l-11.9-6.9c-0.1-0.1-0.2,0-0.2,0.1v13.4c0,0.1,0.1,0.3,0.2,0.4l15.5,8.9
			c0.1,0.1,0.2,0,0.2-0.1V201.7z"/>
	</g>
	<g>
		<path class="st14" d="M189.1,181.7c-0.1-0.1-0.3-0.1-0.5,0l-15.4,8.9c-0.1,0.1-0.1,0.2,0,0.3l1.3,0.7c0.1,0.1,0.3,0.1,0.5,0
			l13.7-7.9c0.1-0.1,0.3-0.1,0.5,0l11.9,6.9c0.1,0.1,0.1,0.2,0,0.3l-12,6.9c-0.1,0.1-0.3,0.1-0.5,0l-8.1-4.7c-0.1-0.1-0.1-0.2,0-0.3
			l8.5-4.9c0.1-0.1,0.3-0.1,0.5,0l4.7,2.7c0.1,0.1,0.1,0.2,0,0.3l-4.9,2.8c-0.1,0.1-0.3,0.1-0.5,0l-1.2-0.7c-0.1-0.1-0.1-0.2,0-0.3
			l3.2-1.8c0.1-0.1,0.1-0.2,0-0.3l-1.3-0.7c-0.1-0.1-0.3-0.1-0.5,0l-4.9,2.8c-0.1,0.1-0.1,0.2,0,0.3l4.7,2.7c0.1,0.1,0.3,0.1,0.5,0
			l8.4-4.8c0.1-0.1,0.1-0.2,0-0.3l-8.2-4.7c-0.1-0.1-0.3-0.1-0.5,0l-11.9,6.9c-0.1,0.1-0.1,0.2,0,0.3l11.6,6.7
			c0.1,0.1,0.3,0.1,0.5,0l15.4-8.9c0.1-0.1,0.1-0.2,0-0.3L189.1,181.7z"/>
	</g>
	<g>
		<path class="st15" d="M189.9,201.7c0-0.1,0.1-0.3,0.2-0.4l15.4-8.9c0.1-0.1,0.2,0,0.2,0.1v1.5c0,0.1-0.1,0.3-0.2,0.4l-13.7,7.9
			c-0.1,0.1-0.2,0.3-0.2,0.4v13.7c0,0.1,0.1,0.2,0.2,0.1l12-6.9c0.1-0.1,0.2-0.3,0.2-0.4v-9.4c0-0.1-0.1-0.2-0.2-0.1l-8.5,4.9
			c-0.1,0.1-0.2,0.3-0.2,0.4v5.4c0,0.1,0.1,0.2,0.2,0.1l4.9-2.8c0.1-0.1,0.2-0.3,0.2-0.4v-1.4c0-0.1-0.1-0.2-0.2-0.1l-3.2,1.8
			c-0.1,0.1-0.2,0-0.2-0.1V206c0-0.1,0.1-0.3,0.2-0.4l4.9-2.9c0.1-0.1,0.2,0,0.2,0.1v5.4c0,0.1-0.1,0.3-0.2,0.4l-8.4,4.8
			c-0.1,0.1-0.2,0-0.2-0.1V204c0-0.1,0.1-0.3,0.2-0.4l11.9-6.9c0.1-0.1,0.2,0,0.2,0.1v13.4c0,0.1-0.1,0.3-0.2,0.4l-15.4,8.9
			c-0.1,0.1-0.2,0-0.2-0.1V201.7z"/>
	</g>
</g>
<g>
	<path class="st16" d="M132.4,240.7c0,0,9,13.3-4.6,21.1C127.9,261.7,116.9,253.7,132.4,240.7z"/>
	<path class="st17" d="M104.3,253.2c0,0,8.2,13.7,23.5,8.6C127.8,261.8,125.9,249.7,104.3,253.2z"/>
	<path class="st16" d="M141.1,251.4c0,0,10.5,12.6-2.3,21.4C138.8,272.7,127,265.6,141.1,251.4z"/>
	<path class="st17" d="M114.4,266c0,0,9.7,13,24.3,6.7C138.7,272.8,135.6,260.9,114.4,266z"/>
	<path class="st16" d="M150.4,262.1c0,0,13.3,10.6,2.9,21.3C153.3,283.4,140.1,278.4,150.4,262.1z"/>
	<path class="st17" d="M127.8,281c0,0,12.6,11.1,25.5,2.5C153.3,283.5,147.3,272.4,127.8,281z"/>
	<path class="st16" d="M109.2,175.3c0,0,2.9,15.1-13.1,18.4C96.1,193.7,89.2,183,109.2,175.3z"/>
	<path class="st17" d="M77.6,178.8c0,0,1.9,15.2,18.4,14.9C96,193.7,99.4,181.8,77.6,178.8z"/>
	<path class="st16" d="M111.4,187.9c0,0,4.5,14.9-11.1,19.3C100.3,207.2,92.3,197.1,111.4,187.9z"/>
	<path class="st17" d="M80.3,193.8c0,0,3.6,15,20,13.5C100.2,207.2,102.3,195.2,80.3,193.8z"/>
	<path class="st16" d="M115.4,201.1c0,0,4.9,14.8-10.6,19.5C104.8,220.6,96.5,210.6,115.4,201.1z"/>
	<path class="st17" d="M84.5,207.5c0,0,4,15,20.3,13.1C104.7,220.6,106.5,208.5,84.5,207.5z"/>
	<path class="st16" d="M120.2,214.6c0,0,6.6,14.3-8.3,20.3C111.9,234.9,102.5,225.6,120.2,214.6z"/>
	<path class="st17" d="M90.1,223.5c0,0,5.7,14.6,21.7,11.4C111.8,234.9,112.1,222.7,90.1,223.5z"/>
	<path class="st16" d="M125.9,227.7c0,0,7.3,14.1-7.2,20.6C118.6,248.3,108.8,239.3,125.9,227.7z"/>
	<path class="st17" d="M96.3,237.7c0,0,6.4,14.4,22.3,10.6C118.6,248.3,118.3,236.1,96.3,237.7z"/>
	<path class="st16" d="M103.6,151.6c0,0,1.8,13.2-12.2,15.6C91.4,167.2,85.9,157.6,103.6,151.6z"/>
	<path class="st17" d="M76,153.6c0,0,1,13.3,15.3,13.5C91.3,167.2,94.7,157,76,153.6z"/>
	<path class="st16" d="M107.4,162.6c0,0,2.1,15.2-14.1,17.9C93.3,180.5,87,169.6,107.4,162.6z"/>
	<path class="st17" d="M75.6,165c0,0,1.1,15.3,17.6,15.6C93.3,180.5,97.2,168.8,75.6,165z"/>
	<path class="st18" d="M198.9,300.7C89.6,280.3,89.6,146.4,89.6,146.4"/>
	<path class="st17" d="M89.5,129.5c0,0,12.1,11.6,0.6,21.4C90.1,150.9,77.4,144.9,89.5,129.5z"/>
</g>
<g>
	<path class="st16" d="M244.8,241.6c0,0-9,13.3,4.6,21.1C249.4,262.6,260.4,254.6,244.8,241.6z"/>
	<path class="st17" d="M273,254.1c0,0-8.2,13.7-23.5,8.6C249.5,262.7,251.4,250.6,273,254.1z"/>
	<path class="st16" d="M236.2,252.3c0,0-10.5,12.6,2.3,21.4C238.5,273.6,250.3,266.5,236.2,252.3z"/>
	<path class="st17" d="M262.9,266.9c0,0-9.7,13-24.3,6.7C238.6,273.7,241.7,261.8,262.9,266.9z"/>
	<path class="st16" d="M226.9,263c0,0-13.3,10.6-2.9,21.3C224,284.3,237.2,279.3,226.9,263z"/>
	<path class="st17" d="M249.5,281.9c0,0-12.6,11.1-25.5,2.5C224,284.4,230,273.3,249.5,281.9z"/>
	<path class="st16" d="M268.1,176.2c0,0-2.9,15.1,13.1,18.4C281.2,194.6,288.1,183.9,268.1,176.2z"/>
	<path class="st17" d="M299.7,179.7c0,0-1.9,15.2-18.4,14.9C281.3,194.6,277.9,182.7,299.7,179.7z"/>
	<path class="st16" d="M265.9,188.8c0,0-4.5,14.9,11.1,19.3C277,208.1,285,198,265.9,188.8z"/>
	<path class="st17" d="M297,194.7c0,0-3.6,15-20,13.5C277,208.1,275,196.1,297,194.7z"/>
	<path class="st16" d="M261.9,202c0,0-4.9,14.8,10.6,19.5C272.5,221.5,280.8,211.5,261.9,202z"/>
	<path class="st17" d="M292.8,208.4c0,0-4,15-20.3,13.1C272.6,221.5,270.8,209.4,292.8,208.4z"/>
	<path class="st16" d="M257.1,215.5c0,0-6.6,14.3,8.3,20.3C265.4,235.8,274.8,226.5,257.1,215.5z"/>
	<path class="st17" d="M287.2,224.4c0,0-5.7,14.6-21.7,11.4C265.5,235.8,265.2,223.6,287.2,224.4z"/>
	<path class="st16" d="M251.4,228.6c0,0-7.3,14.1,7.2,20.6C258.7,249.2,268.5,240.2,251.4,228.6z"/>
	<path class="st17" d="M281,238.6c0,0-6.4,14.4-22.3,10.6C258.7,249.2,259,237,281,238.6z"/>
	<path class="st16" d="M273.7,152.5c0,0-1.8,13.2,12.2,15.6C285.9,168.1,291.4,158.5,273.7,152.5z"/>
	<path class="st17" d="M301.3,154.5c0,0-1,13.3-15.3,13.5C286,168.1,282.6,157.9,301.3,154.5z"/>
	<path class="st16" d="M269.9,163.5c0,0-2.1,15.2,14.1,17.9C284,181.4,290.3,170.5,269.9,163.5z"/>
	<path class="st17" d="M301.7,165.9c0,0-1.1,15.3-17.6,15.6C284,181.4,280.1,169.7,301.7,165.9z"/>
	<path class="st18" d="M178.4,301.6c109.2-20.4,109.2-154.3,109.2-154.3"/>
	<path class="st17" d="M287.8,130.4c0,0-12.1,11.6-0.6,21.4C287.2,151.8,299.9,145.8,287.8,130.4z"/>
</g>
<path class="st9" d="M251.4,311.2c0,0,23.2,6.2,29.8,14.2l-11.4,1.7c0,0,3.5,4.2,6.7,15.9c0,0-12.9-11.1-31.6-17.8L251.4,311.2z"/>
<path class="st0" d="M262.7,327.3c0,0-11.1-0.5-17.8-2.2l13.8-30.4L262.7,327.3z"/>
<path class="st9" d="M126.3,311.2c0,0-23.2,6.2-29.8,14.2l11.4,1.7c0,0-3.5,4.2-6.7,15.9c0,0,12.9-11.1,31.6-17.8L126.3,311.2z"/>
<path class="st0" d="M115.1,327.3c0,0,11.1-0.5,17.8-2.2l-13.8-30.4L115.1,327.3z"/>
<path class="st10" d="M105.8,302.9l9.2,24.5c0,0,63.9-41.7,147.5,0l8.7-23.4C271.2,303.9,188.5,232.6,105.8,302.9z"/>
<circle class="st1" cx="117.9" cy="310.6" r="1.5"/>
<circle class="st1" cx="258.8" cy="310.6" r="1.5"/>
<g>
	<path class="st1" d="M132.4,307.5c-1,0.4-1.5,0.6-2.6,1l-3.6-8.1c0.9-0.5,1.6-0.9,2.4-1.2c3.4-1.5,5.8-0.5,6.8,1.9
		C136.5,303.4,135.8,305.9,132.4,307.5z M129.6,300.7c-0.3,0.1-0.5,0.2-0.8,0.4l2.2,4.9c0.4-0.1,0.5-0.2,0.9-0.4
		c1.8-0.8,2.1-2.2,1.5-3.7C132.7,300.4,131.4,299.9,129.6,300.7z"/>
	<path class="st1" d="M139.8,304.2l-3.1-8.5l5.4-1.9l0.7,1.8l-3.4,1.2l0.6,1.5l3.1-1.1l0.6,1.7l-3.1,1.1l0.6,1.7l3.4-1.2l0.7,1.8
		L139.8,304.2z"/>
	<path class="st1" d="M148,301.4l-2.6-8.6l2-0.6l2,6.8l3.5-1l0.5,1.8L148,301.4z"/>
	<path class="st1" d="M157.9,295.9c-0.3,0.1-0.5,0.1-0.8,0.2l0.6,2.6l-2,0.5l-2-8.7c0.9-0.3,1.7-0.5,2.4-0.7
		c2.5-0.6,4.2,0.5,4.6,2.2C161.2,293.8,160.2,295.4,157.9,295.9z M156.9,291.6c-0.3,0.1-0.4,0.1-0.7,0.2l0.6,2.5
		c0.3-0.1,0.4-0.1,0.6-0.1c1.1-0.2,1.5-0.8,1.3-1.7C158.5,291.8,157.9,291.3,156.9,291.6z"/>
	<path class="st1" d="M170,296.3l-0.6-3.6l-3.4,0.5l0.6,3.6l-2.1,0.3l-1.4-8.9l2.1-0.3l0.5,3.5l3.4-0.5l-0.5-3.5l2.1-0.3l1.4,8.9
		L170,296.3z"/>
	<path class="st1" d="M175.2,295.7l-0.9-9l2.1-0.2l0.9,9L175.2,295.7z"/>
	<path class="st1" d="M185,295.2c-2.9,0.1-5-1.8-5.1-4.5c-0.1-2.7,1.8-4.7,4.8-4.8c1,0,2,0.2,2.8,0.7l-0.6,1.8
		c-0.7-0.3-1.4-0.5-2.2-0.5c-1.7,0.1-2.7,1.1-2.6,2.8c0.1,1.7,1.1,2.7,2.8,2.6c0.7,0,1.6-0.3,2.2-0.7l0.7,1.7
		C187.1,294.8,186.1,295.2,185,295.2z"/>
	<path class="st1" d="M196.8,295.3c-1.1-0.1-1.6-0.2-2.7-0.3l0.6-8.8c1.1,0,1.8,0,2.7,0c3.7,0.3,5.3,2.3,5.2,4.9
		C202.3,293.7,200.5,295.6,196.8,295.3z M197.5,288.1c-0.4,0-0.5,0-0.9,0l-0.4,5.3c0.4,0.1,0.5,0.1,1,0.1c2,0.1,2.9-0.9,3-2.6
		C200.4,289.3,199.5,288.2,197.5,288.1z"/>
	<path class="st1" d="M205,296.1l1.2-8.9l2.1,0.3l-1.2,8.9L205,296.1z"/>
	<path class="st1" d="M218.8,293.3l-0.8,4.2c-1.1,0.4-2.2,0.5-3.5,0.2c-2.6-0.5-4.3-2.8-3.7-5.5c0.5-2.7,3-4.2,5.7-3.6
		c1.2,0.2,2,0.7,2.8,1.4l-1.2,1.5c-0.6-0.5-1.2-0.8-1.9-0.9c-1.8-0.4-2.9,0.6-3.2,2.1c-0.3,1.7,0.6,3,2,3.3c0.7,0.1,1,0.1,1.4,0
		l0.3-1.3l-1.8-0.4l0.4-1.7L218.8,293.3z"/>
	<path class="st1" d="M220.6,299.1l2.3-8.7l2,0.5l-2.3,8.7L220.6,299.1z"/>
	<path class="st1" d="M231.8,295l-2.2,6.7l-2-0.7l2.2-6.7l-2.6-0.8l0.6-1.8l7.1,2.3l-0.6,1.8L231.8,295z"/>
	<path class="st1" d="M238.7,305.2l0-1.8l-2.9-1.2l-1.2,1.3l-2-0.8l7.3-6.9l0.3,0.1l0.6,10L238.7,305.2z M238.6,299.3L237,301
		l1.7,0.7L238.6,299.3z"/>
	<path class="st1" d="M242.5,306.8l3.9-8.1l1.9,0.9l-3.1,6.4l3.3,1.6l-0.8,1.7L242.5,306.8z"/>
</g>
<g>
	<path d="M30.7,31.6c0.9,1.8,2.2,2.9,4.1,3.3L55,34.1c1.5,0.1,3.6,0.3,6.4,0.6c2,0.3,3.8,1.2,5.4,2.6c1.5,1.4,2.7,3,3.5,5
		c0.8,1.8,1.4,3.6,1.9,5.6c0.1,0.2,0.2,0.5,0.2,1c0,0.2,0.1,0.5,0.2,0.9c0.1,0.4,0.2,1.1,0.4,1.9c0.1,0.3,0.2,1.3,0.2,3
		c0.1,2,0.2,3.1,0.2,3.1v2c0,0.5,0,0.8,0.1,1v4c0,0.3,0,0.8-0.1,1.5c0,0.7-0.1,1.1-0.1,1.5c-3.2,1.2-6.5,3.3-9.9,6.3
		c-0.5-0.2-2.2-0.6-4.9-1.3c-0.6-0.1-1.4-0.3-2.5-0.5c-1.7-0.4-3-0.5-3.8-0.5c-1.3-0.2-2.6-0.2-3.8-0.2h-1.5c-0.1,0-0.2,0.1-0.5,0.1
		c-0.7,0-1.7,0.1-3,0.3c-0.7,0.1-1.6,0.3-2.9,0.6c-2.9,0.8-5.7,2-8.4,3.6h-0.2c0,0-0.1,0-0.1,0h-0.4h-0.1H31c0-0.1,0-0.2,0.1-0.5
		c0-0.1,0.1-0.2,0.1-0.2c0,0,0.1,0,0.1-0.1c0-0.1,0.1-0.1,0.1-0.2c0,0,0-0.1,0.1-0.1h0.1V75l12.4-8c1.3-0.8,2.4-2,3.4-3.6
		c0.9-1.4,1.4-2.9,1.6-4.7v-0.5c0-0.1-0.1-0.3-0.1-0.5c0-0.3,0-0.6,0-1c-0.1-1.3-0.2-2-0.2-2c0-0.2,0-0.3,0-0.5
		c0-0.2-0.1-0.4-0.1-0.5v-1c0-0.6,0-1.3,0.1-1.9c0.1-0.9,0.2-2.2,0.4-4c0.1-0.4,0.2-1,0.4-1.9c0.3-1.4,0.7-2.7,1-3.7L50,40.8
		c0,0.1-0.1,0.1-0.2,0.1h-0.1L49.7,41h-0.2c0,0-0.1,0.1-0.2,0.1c-0.1,0-0.2,0.1-0.2,0.1c-1.9,1.3-3,2.8-3.5,4.7v0.6
		c0,0.1-0.1,0.3-0.1,0.6c0,0.4-0.1,0.8-0.1,1.3c0,0-0.1,0.2-0.1,0.4V49c0,0,0,0.3-0.1,1l-0.1,1.1c0,0.8-0.1,1.4-0.1,2V54
		c0,0.4,0,0.7,0.1,0.8c0,0.6,0,1.2,0,1.8c0,0.6,0.1,1.1,0.2,1.7c-0.3,2.7-1.4,5.1-3.2,7c-1.8,2-3.9,3.8-6.2,5.3l-2.2,1.5
		c-1,0.6-1.7,1.1-2.1,1.3H31l1-1c0.2-0.2,0.6-0.6,1-1.1c1.5-1.7,2.4-2.8,2.7-3.3c0.9-1.3,1.3-2.6,1.3-4v-0.2c0,0-0.1-0.2-0.1-0.4
		c0-0.2-0.1-0.4-0.1-0.5v-0.2c-0.1-0.1-0.1-0.2-0.1-0.2v-0.2c-0.1-0.1-0.1-0.2-0.2-0.4c0,0-0.1,0-0.1-0.1c-0.4-0.8-0.9-1.5-1.5-2.1
		c-0.6-0.6-1.3-0.8-2.1-0.8l-0.7-0.1c-0.3,0.2-0.8,0.5-1.4,0.8c-0.2,0.2-0.6,0.5-1.2,0.8c0,0-0.1,0.1-0.2,0.2l-0.1,0.1
		c0-1.8,0.7-3.2,2.2-4.3c1.3-0.9,2.9-1.4,4.8-1.4h0.4l1.6-0.1c0.1-6,3.1-10.6,9.1-13.7l-11-0.1c-1.4,0-2.7-0.7-4-2.2
		c-1-1.4-1.6-2.8-1.8-4.3v-1.1c0-0.1,0-0.3,0.1-0.7l0.1-0.1v-0.1c0,0,0-0.1,0-0.3c0-0.1,0-0.2,0.1-0.3c0,0,0-0.1,0.1-0.2V31.6z
		 M53.4,40.8l-1.6,0.1c-0.1,0.2-0.2,0.5-0.4,0.9c0,0.1,0,0.2-0.1,0.4c-0.1,0.2-0.1,0.4-0.2,0.5c-0.1,0.4-0.2,1-0.5,1.8
		c0,0,0,0.1,0,0.2c0,0.1-0.1,0.2-0.1,0.4c0,0.1,0,0.3,0,0.5v0.5c0,0.2-0.1,0.4-0.1,0.6c-0.1,0.8-0.2,1.4-0.2,1.7v0.6
		c0,0.3,0,0.7-0.1,1.2c-0.1,0.5-0.1,0.9-0.1,1.2c0,1-0.1,1.8-0.1,2.2v0.9c0,0.9,0,1.5,0.1,1.8c0,0.3,0.1,0.6,0.1,1
		c0,0.4,0.1,0.7,0.1,1c0,0.1,0,0.3,0.1,0.4v0.5c-0.3,1.9-1.1,3.9-2.4,6l1.4-0.1c0.2,0.1,0.5,0.2,0.9,0.2h1c0.6,0.1,0.9,0.1,1.1,0.1
		h0.5c0.1,0,0.3,0.1,0.5,0.1V40.8z M54.8,41v9.3c0.2,1,0.6,1.6,1.3,2c0.6,0.4,1.4,0.7,2.4,0.9c0.5,0.1,0.8,0.2,0.9,0.2h1.1
		c0.1,0,0.2,0,0.2-0.1h0.4c0,0,0.1,0,0.2-0.1h0.1c1-0.2,1.7-0.4,2.2-0.7c0.5-0.3,1.2-0.7,2-1.3c0-0.1,0-0.2,0.1-0.5
		c0,0,0-0.1,0.1-0.3v-0.3c0,0,0-0.1,0.1-0.1v-0.7c0,0-0.1-0.1-0.1-0.2v-0.3c0,0-0.1-0.1-0.1-0.2c-0.3-1.4-1-2.7-2-3.9
		c-1.1-1.3-2.2-2.2-3.3-2.7c-0.1,0-0.2-0.1-0.3-0.1c-0.1,0-0.3-0.1-0.5-0.2c-0.1-0.1-0.3-0.2-0.7-0.2c-0.1,0-0.2,0-0.4-0.1h-0.4
		c-0.2,0-0.4,0-0.7-0.1h-0.8c0,0-0.2,0-0.4-0.1h-0.4L54.8,41z M60.3,59.9c-0.1,0-0.4,0.1-0.9,0.2c-0.7,0.1-1.6,0.4-2.9,1
		c-0.4,0.2-1,0.5-1.7,1.1v3.5c3.5,0.5,6.4,1.1,8.9,1.7c0.6,0.2,1.6,0.4,2.9,0.8c0,0,0-0.1,0.1-0.3v-0.2c0-0.1,0-0.2,0.1-0.3v-1.9
		c0-0.1-0.1-0.3-0.1-0.5v-1c-0.1-0.4-0.1-0.7-0.1-1l-0.2-0.9c-0.4-0.3-1.2-0.7-2.2-1.3c-0.7-0.4-1.5-0.7-2.3-0.7
		c-0.1,0-0.2,0-0.3-0.1h-0.3c-0.1,0-0.2,0-0.3-0.1h-0.3L60.3,59.9z M66.1,52.7c-0.1,0.1-0.2,0.2-0.4,0.3c-0.2,0.1-0.3,0.2-0.3,0.2
		c-0.2,0-0.5,0.1-0.8,0.3c-0.3,0.1-0.5,0.3-0.6,0.5c-0.1,0-0.2,0-0.4,0.1c-0.2,0.1-0.3,0.1-0.4,0.1c-1,0.3-1.9,0.5-2.8,0.5
		c-1.8,0-3.7-0.6-5.6-1.7v7.3c1.2-0.5,2.2-0.9,2.9-1c0.4-0.1,0.8-0.2,1.4-0.3c0.1,0,0.3,0,0.7-0.1c0.3,0,0.6,0,0.7,0
		c0.3,0,0.8,0,1.4,0.1c0.3,0,0.8,0.1,1.5,0.2c0.3,0,0.8,0.2,1.4,0.5c0.2,0.1,0.4,0.2,0.7,0.3c0.1,0,0.2,0.1,0.4,0.1
		c0.2,0.1,0.3,0.1,0.4,0.2L66.1,52.7z"/>
	<path d="M89.4,43.5l7.8,8l-10.3,9v5.9l5,2.4l3.7-2.8l0.8,1.1l-8,6.3h-0.2c-0.2,0-0.5-0.1-0.8-0.1c-0.4-0.1-0.6-0.2-0.7-0.2
		c-0.1,0-0.6-0.3-1.4-0.9c-0.1,0-0.2-0.1-0.4-0.3c0,0-0.1-0.1-0.2-0.2c-0.1-0.1-0.2-0.2-0.3-0.2c-0.1-0.1-0.3-0.2-0.6-0.4
		c-0.3-0.2-0.7-0.3-1.1-0.4L82,70.7c-0.1,0-0.3,0-0.5-0.1c-0.2,0-0.4-0.1-0.6-0.1c-0.2,0-0.4-0.1-0.6-0.2c-0.2-0.1-0.6-0.2-1.2-0.2
		c1.3-1.3,2-2.9,2-4.7V48.7c1.4-0.5,2.8-1.3,4.3-2.2c1.2-0.8,2.5-1.8,3.8-2.9V43.5z M86.8,48.8v9.4c0.2,0,0.5-0.2,0.8-0.5l0.9-0.7
		c0.1,0,0.1-0.1,0.2-0.2c0.1-0.1,0.1-0.1,0.1-0.1c0,0,0.1-0.1,0.2-0.1c0.1-0.1,0.1-0.1,0.2-0.1c0,0,0.1-0.1,0.3-0.2
		c0.2-0.1,0.3-0.2,0.4-0.3c0.4-0.2,0.7-0.5,1.1-0.8c0.4-0.3,0.7-0.6,1-0.9L86.8,48.8z"/>
	<path d="M110.4,33.2h1.7c-1.1,1-1.9,2-2.2,2.9c-0.4,1.1-0.7,2.2-0.9,3.4v26.6l3.2,2.5l1.1-0.8l0.9,1l-5.7,5
		c-1.2-1.2-2.4-2.2-3.5-2.9c-1.3-0.9-2.6-1.6-4.1-2.2c1.6-1,2.3-2.4,2.3-4.1V38.3c-0.4-1.6-1.3-2.9-2.6-4l0.4-0.1
		c0.1,0.1,0.3,0.2,0.5,0.2c0.2,0,0.4,0.1,0.7,0.2c0.3,0.1,0.5,0.2,0.7,0.3c0.1,0.1,0.4,0.2,0.7,0.4c0.3,0.2,0.8,0.5,1.3,1l0.2,0.2
		c0,0.2,0.1,0.3,0.3,0.3c0,0.1,0,0.1,0.1,0.1c0.8-1,1.6-1.7,2.2-2.1c0.8-0.6,1.7-1.1,2.7-1.3V33.2z"/>
	<path d="M121.7,43.5h0.1c0.1,0.1,0.2,0.1,0.4,0.1c0,0,0.1,0,0.1,0c0,0,0.1,0.1,0.1,0.1c0,0,0.1,0.1,0.2,0.1c0.1,0,0.1,0,0.2,0.1
		s0.1,0.1,0.1,0.1c0,0,0.1,0.1,0.2,0.1c0.1,0.1,0.1,0.1,0.2,0.1c0,0,0.1,0.1,0.1,0.1c0.1,0.1,0.1,0.1,0.1,0.1c0,0,0.1,0.1,0.3,0.3
		c0,0,0.1,0,0.1,0.1c0.1,0.1,0.1,0.1,0.1,0.2s0,0.1,0.1,0.2c0.1,0.1,0.1,0.1,0.2,0.2c0,0.1,0.1,0.1,0.1,0.1c0,0,0,0.1,0.1,0.2
		c0.9,1.4,1.4,2.8,1.5,4.1l6.5-6.5c1.6,1.1,2.9,2.4,4,4c1.2,1.8,1.7,3.5,1.7,5.3v14.7c-2.9,1.9-5.4,3.9-7.4,5.9l-4.6-2.2v0.3
		c0,0-0.1,0.1-0.1,0.2v0.2c0,0-0.1,0.1-0.1,0.2v0.2c-0.1,0.6-0.2,0.9-0.2,1c0,0.1,0,0.3,0,0.7c0,3,1.1,5.5,3.2,7.4h-1
		c0,0-0.1,0-0.2,0h-0.5c0,0-0.1,0-0.2,0h-0.4c-1.1-0.6-1.9-1.1-2.3-1.6c-0.2-0.2-0.9-0.8-2-2c-0.2,0-0.3,0.1-0.3,0.3
		c-1.6,1.4-3,2.1-4.3,2.1h-0.2c0.8-0.8,1.5-1.8,2-2.9c0.6-1.3,0.8-2.4,0.8-3.4v-4.7c-0.1,0-0.3,0.1-0.5,0.1c0,0-0.1,0-0.2-0.1h-0.3
		v-0.1h-0.1c-0.2,0-0.6,0-1-0.1c-0.2,0-0.4,0-0.4-0.1h-0.4L117,69v-2c0,0.1,0,0.2,0.1,0.2h0.2l0.1,0.1h0.4c0.1,0,0.1,0,0.2-0.1
		c0.1,0,0.1-0.1,0.2-0.1s0.1,0,0.2-0.1h0.2c0,0,0.1,0,0.2-0.1h0.2c0.6-0.5,1.1-1.1,1.5-1.7v-14c0,0-0.1-0.1-0.1-0.3
		c0-0.2-0.1-0.3-0.1-0.4c-0.2-0.6-0.4-1-0.5-1.1c0-0.1-0.1-0.2-0.1-0.3c-0.1-0.1-0.2-0.2-0.2-0.3c0-0.1-0.1-0.1-0.2-0.2
		c-0.1-0.1-0.2-0.2-0.2-0.2l-1.6,1l-0.7-0.7L121.7,43.5z M129.6,48.8c-0.2,0.2-0.5,0.6-1,1c-1.2,1.2-2,2.2-2.6,3v13.1l6.6,2.1V52.2
		c-0.4-0.6-0.9-1.2-1.3-1.8c-0.6-0.7-1.1-1.2-1.7-1.4V48.8z"/>
	<path d="M153.6,33.2h1.4c-1.2,1-1.9,2-2.3,2.9c-0.4,0.9-0.7,2.1-0.9,3.6v10.6l8.2-6.8c1.2,1,2.1,1.9,2.8,2.8c0.7,1,1.2,2.2,1.5,3.5
		v18.5c-0.8,3.6-2.6,6.4-5.6,8.3c-3,1.9-6.2,3.3-9.7,4h-0.2c0,0-0.1-0.1-0.1-0.1c-0.1,0-0.2-0.1-0.4-0.1h-0.1c0,0-0.1-0.1-0.1-0.1
		h-0.1c0,0-0.1-0.1-0.1-0.1l0.4-0.9c5.6-1.8,9-4.8,10.3-8.8V50.6l-2.3-2.1l-4.6,3.7v15.1l1.9,2.2l-4.7,4.1l-4.7-4.1l1.9-2.2V47.9
		l-3.1-0.1v-3.2h3.4v-4.9c-0.5-2.3-1.4-4.1-2.9-5.2l0.4-0.1c0.1,0.1,0.3,0.2,0.5,0.2h0.2c0,0,0.1,0.1,0.2,0.1
		c0.4,0.1,0.9,0.4,1.5,0.7s1.1,0.7,1.4,1.1c0,0,0.1,0,0.1,0.1c0,0.1,0.1,0.1,0.1,0.2l0.2,0.2c1.6-2.1,3.5-3.3,5.6-3.7V33.2z"/>
	<path d="M174.5,43.8l4.4,4l-1.7,2.3v16.9c0,0.6,0.1,1.2,0.3,1.5c0.2,0.4,0.5,0.7,1.1,0.9l1.4-1.1l0.9,0.9l-5.3,4.6
		c-1,0-1.8-0.3-2.4-1c-0.9-0.9-1.4-1.9-1.5-3c0-0.2-0.1-0.4-0.1-0.7V50l-1.4-2.4L174.5,43.8z M176.5,34.2h3.6l-4.8,6.5L176.5,34.2z"
		/>
	<path d="M199.6,47.9l-2.7,4c-1.8-0.6-3.6-1.6-5.3-3V66c0.6,0.6,1.4,1.2,2.4,1.6c0.3,0.2,0.6,0.4,1,0.6c0.4,0.2,0.8,0.5,1.4,0.8
		l3-2.3c0,0,0.1,0.1,0.1,0.2c0,0.1,0.1,0.2,0.2,0.2l0.2,0.2c0,0.2,0.1,0.4,0.4,0.7l-7.6,5.7c-3.2-2.2-6-3.6-8.4-4.1
		c1.1-1.2,1.6-2.6,1.6-4V48.5c0.8-0.2,1.8-0.7,3-1.6c0.2-0.1,0.3-0.3,0.5-0.5c0.2-0.2,0.5-0.4,0.8-0.6l1.4-1.4
		c0.2-0.1,0.4-0.3,0.6-0.5c0.3-0.2,0.5-0.3,0.8-0.3h0.3v-0.1L199.6,47.9z"/>
	<path d="M227.5,31.6c0.9,1.8,2.2,2.9,4.1,3.3l20.2-0.8c1.5,0.1,3.6,0.3,6.4,0.6c2,0.3,3.8,1.2,5.4,2.6c1.5,1.4,2.7,3,3.5,5
		c0.8,1.8,1.4,3.6,1.9,5.6c0.1,0.2,0.2,0.5,0.2,1c0,0.2,0.1,0.5,0.2,0.9c0.1,0.4,0.2,1.1,0.4,1.9c0.1,0.3,0.2,1.3,0.2,3
		c0.1,2,0.2,3.1,0.2,3.1v2c0,0.5,0,0.8,0.1,1v4c0,0.3,0,0.8-0.1,1.5c0,0.7-0.1,1.1-0.1,1.5c-3.2,1.2-6.5,3.3-9.9,6.3
		c-0.5-0.2-2.2-0.6-4.9-1.3c-0.6-0.1-1.4-0.3-2.5-0.5c-1.7-0.4-3-0.5-3.8-0.5c-1.3-0.2-2.6-0.2-3.8-0.2h-1.5c-0.1,0-0.2,0.1-0.5,0.1
		c-0.7,0-1.7,0.1-3,0.3c-0.7,0.1-1.6,0.3-2.9,0.6c-2.9,0.8-5.7,2-8.4,3.6h-0.2c0,0-0.1,0-0.1,0h-0.4h-0.1h-0.4c0-0.1,0-0.2,0.1-0.5
		c0-0.1,0.1-0.2,0.1-0.2c0,0,0.1,0,0.1-0.1c0-0.1,0.1-0.1,0.1-0.2c0,0,0-0.1,0.1-0.1h0.1V75l12.4-8c1.3-0.8,2.4-2,3.4-3.6
		c0.9-1.4,1.4-2.9,1.6-4.7v-0.5c0-0.1-0.1-0.3-0.1-0.5c0-0.3,0-0.6,0-1c-0.1-1.3-0.2-2-0.2-2c0-0.2,0-0.3,0-0.5
		c0-0.2-0.1-0.4-0.1-0.5v-1c0-0.6,0-1.3,0.1-1.9c0.1-0.9,0.2-2.2,0.4-4c0.1-0.4,0.2-1,0.4-1.9c0.3-1.4,0.7-2.7,1-3.7l-0.4-0.1
		c0,0.1-0.1,0.1-0.2,0.1h-0.1l-0.1,0.1h-0.2c0,0-0.1,0.1-0.2,0.1c-0.1,0-0.2,0.1-0.2,0.1c-1.9,1.3-3,2.8-3.5,4.7v0.6
		c0,0.1-0.1,0.3-0.1,0.6c0,0.4-0.1,0.8-0.1,1.3c0,0-0.1,0.2-0.1,0.4V49c0,0,0,0.3-0.1,1l-0.1,1.1c0,0.8-0.1,1.4-0.1,2V54
		c0,0.4,0,0.7,0.1,0.8c0,0.6,0,1.2,0,1.8c0,0.6,0.1,1.1,0.2,1.7c-0.3,2.7-1.4,5.1-3.2,7c-1.8,2-3.9,3.8-6.2,5.3l-2.2,1.5
		c-1,0.6-1.7,1.1-2.1,1.3h-0.8l1-1c0.2-0.2,0.6-0.6,1-1.1c1.5-1.7,2.4-2.8,2.7-3.3c0.9-1.3,1.3-2.6,1.3-4v-0.2c0,0-0.1-0.2-0.1-0.4
		c0-0.2-0.1-0.4-0.1-0.5v-0.2c-0.1-0.1-0.1-0.2-0.1-0.2v-0.2c-0.1-0.1-0.1-0.2-0.2-0.4c0,0-0.1,0-0.1-0.1c-0.4-0.8-0.8-1.5-1.5-2.1
		c-0.6-0.6-1.3-0.8-2.1-0.8l-0.7-0.1c-0.3,0.2-0.8,0.5-1.4,0.8c-0.2,0.2-0.6,0.5-1.2,0.8c0,0-0.1,0.1-0.2,0.2l-0.1,0.1
		c0-1.8,0.7-3.2,2.2-4.3c1.3-0.9,2.9-1.4,4.8-1.4h0.4l1.6-0.1c0.1-6,3.1-10.6,9.1-13.7l-11-0.1c-1.4,0-2.7-0.7-4-2.2
		c-1-1.4-1.6-2.8-1.8-4.3v-1.1c0-0.1,0-0.3,0.1-0.7l0.1-0.1v-0.1c0,0,0-0.1,0-0.3c0-0.1,0-0.2,0.1-0.3c0,0,0-0.1,0.1-0.2V31.6z
		 M250.2,40.8l-1.6,0.1c-0.1,0.2-0.2,0.5-0.4,0.9c0,0.1,0,0.2-0.1,0.4c-0.1,0.2-0.1,0.4-0.2,0.5c-0.1,0.4-0.2,1-0.5,1.8
		c0,0,0,0.1,0,0.2c0,0.1-0.1,0.2-0.1,0.4c0,0.1,0,0.3,0,0.5v0.5c0,0.2-0.1,0.4-0.1,0.6c-0.1,0.8-0.2,1.4-0.2,1.7v0.6
		c0,0.3,0,0.7-0.1,1.2c-0.1,0.5-0.1,0.9-0.1,1.2c0,1-0.1,1.8-0.1,2.2v0.9c0,0.9,0,1.5,0.1,1.8c0,0.3,0.1,0.6,0.1,1
		c0,0.4,0.1,0.7,0.1,1c0,0.1,0,0.3,0.1,0.4v0.5c-0.3,1.9-1.1,3.9-2.4,6l1.4-0.1c0.2,0.1,0.5,0.2,0.9,0.2h1c0.6,0.1,0.9,0.1,1.1,0.1
		h0.5c0.1,0,0.3,0.1,0.5,0.1V40.8z M251.5,41v9.3c0.2,1,0.6,1.6,1.3,2c0.6,0.4,1.4,0.7,2.4,0.9c0.5,0.1,0.8,0.2,0.9,0.2h1.1
		c0.1,0,0.2,0,0.2-0.1h0.4c0,0,0.1,0,0.2-0.1h0.1c1-0.2,1.7-0.4,2.2-0.7c0.5-0.3,1.2-0.7,2-1.3c0-0.1,0-0.2,0.1-0.5
		c0,0,0-0.1,0.1-0.3v-0.3c0,0,0-0.1,0.1-0.1v-0.7c0,0-0.1-0.1-0.1-0.2v-0.3c0,0-0.1-0.1-0.1-0.2c-0.3-1.4-1-2.7-2-3.9
		c-1.1-1.3-2.2-2.2-3.3-2.7c-0.1,0-0.2-0.1-0.3-0.1c-0.1,0-0.3-0.1-0.5-0.2c-0.1-0.1-0.3-0.2-0.7-0.2c-0.1,0-0.2,0-0.4-0.1h-0.4
		c-0.2,0-0.4,0-0.7-0.1h-0.8c0,0-0.2,0-0.4-0.1h-0.4L251.5,41z M257,59.9c-0.1,0-0.4,0.1-0.9,0.2c-0.7,0.1-1.6,0.4-2.9,1
		c-0.4,0.2-1,0.5-1.7,1.1v3.5c3.5,0.5,6.4,1.1,8.9,1.7c0.6,0.2,1.6,0.4,2.9,0.8c0,0,0-0.1,0.1-0.3v-0.2c0-0.1,0-0.2,0.1-0.3v-1.9
		c0-0.1-0.1-0.3-0.1-0.5v-1c-0.1-0.4-0.1-0.7-0.1-1l-0.2-0.9c-0.4-0.3-1.2-0.7-2.2-1.3c-0.7-0.4-1.5-0.7-2.3-0.7
		c-0.1,0-0.2,0-0.3-0.1H258c-0.1,0-0.2,0-0.3-0.1h-0.3L257,59.9z M262.8,52.7c-0.1,0.1-0.2,0.2-0.4,0.3c-0.2,0.1-0.3,0.2-0.3,0.2
		c-0.2,0-0.5,0.1-0.8,0.3c-0.3,0.1-0.5,0.3-0.6,0.5c-0.1,0-0.2,0-0.4,0.1c-0.2,0.1-0.3,0.1-0.4,0.1c-1,0.3-1.9,0.5-2.8,0.5
		c-1.8,0-3.7-0.6-5.6-1.7v7.3c1.2-0.5,2.2-0.9,2.9-1c0.4-0.1,0.8-0.2,1.4-0.3c0.1,0,0.3,0,0.7-0.1c0.3,0,0.6,0,0.7,0
		c0.3,0,0.8,0,1.4,0.1c0.3,0,0.8,0.1,1.5,0.2c0.3,0,0.8,0.2,1.4,0.5c0.2,0.1,0.4,0.2,0.7,0.3c0.1,0,0.2,0.1,0.4,0.1
		c0.2,0.1,0.3,0.1,0.4,0.2L262.8,52.7z"/>
	<path d="M286.5,43.5c1.1,0.9,2.4,1.7,3.8,2.5c1.5,0.7,2.8,1.3,4,1.6l2,0.5v20.7l-9.1,4.8l-7.7-4l-3.1-0.8l1.3-1.9l0.4-2V48.5
		c1.5-0.3,3-0.9,4.5-1.8c1.5-0.9,2.8-1.9,4-3.1V43.5z M283.8,48.8V66l6.6,2.9V51.6L283.8,48.8z"/>
	<path d="M311.8,43.5l9.2,4.4h0.6l4.4-3.1v6.3h-5v15.8c0,0.1,0,0.3,0.1,0.5c0,0,0,0.1,0,0.2c0,0.1,0.1,0.2,0.1,0.2
		c0.2,0.5,0.5,1.3,1.1,2.3l3.1,4.5V75c0,0.1,0,0.2,0.1,0.2v0.2c0,0,0,0.1,0.1,0.1v0.3c0,0-0.1,0.1-0.1,0.2v0.2c0,0-0.1,0.1-0.1,0.1
		s0,0.2-0.1,0.4c-0.1,0.2-0.1,0.3-0.2,0.4s-0.1,0.1-0.1,0.3c0,0.1-0.1,0.2-0.2,0.3l-0.4,0.4c-0.1,0-0.2,0.1-0.2,0.2l-0.2,0.2
		l-5.9,3.4c-0.1,0-0.2,0-0.5-0.1c-0.2-0.1-0.4-0.1-0.5-0.2c-0.3-0.1-0.7-0.2-1.1-0.3c-0.2-0.1-0.6-0.2-1-0.3c-0.2,0-0.6-0.1-1.1-0.2
		c-1.6-0.2-2.7-0.3-3.4-0.3H310c0,0-0.6,0.1-1.7,0.3c0,0-0.4,0.1-1.2,0.2c-0.2,0-0.4,0.1-0.6,0.2c-0.1,0-0.4,0.1-1,0.3
		c-0.1,0-0.3,0-0.5,0.1c-0.2,0.1-0.6,0.2-1.1,0.2c-0.1,0-0.2,0-0.3,0.1h-0.4c0,0-0.2,0-0.4,0h-0.4l-0.1-1.1l6.4-7.8l-5.9-4.2V47.7
		c3.5-0.5,6.5-1.9,8.9-4.1V43.5z M315.3,68l-7.1,8.7l0.7-0.2c0.5-0.1,1-0.2,1.4-0.2c0.2-0.1,0.6-0.1,1.1-0.1h0.5
		c3,0,6.2,0.7,9.5,2.2l0.2-0.5c-1.5-1.6-2.7-3.1-3.7-4.6c-1.2-1.8-2.1-3.5-2.8-5.2V68z M308.5,48.3v18.2l3.5,2.4
		c1.6-1.2,2.7-2.6,3.2-4.3V50.8L308.5,48.3z"/>
	<path d="M349.6,39.6c0.6,0.2,1,0.5,1.1,0.8c0.3,0.6,0.5,1.1,0.5,1.4c0,0,0,0.1,0.1,0.2v1c0,0.1-0.1,0.3-0.1,0.4l-0.2,0.7v0.2
		c0,0-0.1,0.1-0.1,0.1v0.1c0,0-0.1,0.1-0.1,0.1l-6.5,9.3l5.6,3.5V69c-1.7,0.7-3,1.3-3.7,1.8c-1.4,0.8-2.5,1.6-3.4,2.3
		c0,0-0.1,0-0.2,0.1s-0.1,0.1-0.2,0.1c-0.1,0-0.1,0-0.1,0.1c0,0-0.1,0.1-0.2,0.1c-0.1,0-0.1,0.1-0.2,0.1c-0.4-0.2-1.1-0.6-2-1
		c-0.6-0.2-1.4-0.5-2.2-0.7c-0.1,0-0.2,0-0.5-0.1c-0.1,0-0.2,0-0.3-0.1c-0.1,0-0.2,0-0.2,0c-0.2,0-0.4,0-0.5-0.1h-1.1
		c-0.1,0-0.3,0.1-0.5,0.1c-0.5,0.1-1.4,0.3-2.8,0.7c-0.3,0.1-0.8,0.4-1.5,0.8l-0.8-0.6l7.1-10.5l-5.5-3.4V48.6
		c1.9-0.6,4-2.1,6.2-4.3l0.4-0.4c0,0,0.1-0.1,0.2-0.2l0.2-0.2l6.2,2.3c0.2,0.2,0.3,0.2,0.4,0.2h0.2c0,0,0.1,0.1,0.2,0.1
		c0.4,0.1,0.6,0.2,0.6,0.2c0.1,0,0.2,0,0.4,0c0.4,0,0.6,0,0.7-0.1c0.4-0.1,0.8-0.3,1.4-0.5c0.2-0.2,0.5-0.4,0.7-0.5
		c0.2-0.1,0.4-0.5,0.5-1.1v-1.2c0-0.1-0.2-0.2-0.4-0.2c0-0.1-0.1-0.2-0.4-0.4c0-0.2-0.1-0.3-0.3-0.4c-0.1-0.1-0.2-0.1-0.2-0.2
		l-0.2-0.2v-0.1c0,0-0.1,0-0.1-0.1v-0.1c0,0-0.1,0-0.1-0.1c0-0.1-0.1-0.1-0.1-0.2v-0.2c0,0,0-0.1,0-0.2c0-0.1,0.1-0.3,0.3-0.6
		c0.1-0.2,0.3-0.3,0.5-0.5l0.1-0.1h0.1H349.6z M341.1,58.8l-5.8,8.5c0.1,0.1,0.2,0.1,0.4,0.1c0,0,0.1,0,0.2-0.1h0.2
		c0.6-0.1,0.9-0.1,1.1-0.1c0.2,0,0.3,0,0.5-0.1h0.9c0,0,0.2,0.1,0.4,0.1h0.5c0.1,0,0.3,0.1,0.5,0.1c0.2,0,0.7,0.1,1.3,0.2
		c0.3,0.1,0.7,0.2,1.3,0.4c0.8,0.3,1.7,0.7,2.5,1.2v-7.8L341.1,58.8z M336.7,55.9l3.4,2l5.3-7.7c-0.2,0.2-0.3,0.2-0.5,0.2h-0.3
		c-0.1,0-0.2,0.1-0.3,0.1h-0.4c0,0-0.1,0.1-0.3,0.1H343c0.1,0-0.9-0.1-3.2-0.4c-0.7-0.2-1.8-0.6-3.2-1.1V55.9z"/>
</g>
<g>
	<path d="M87,95.4c0,1-0.3,1.8-1,2.3s-1.7,0.8-3,0.8h-1.2v3.9h-1.2v-10h2.6C85.8,92.5,87,93.4,87,95.4z M81.8,97.5h1
		c1,0,1.8-0.2,2.2-0.5s0.7-0.9,0.7-1.6c0-0.7-0.2-1.2-0.6-1.5s-1.1-0.5-2-0.5h-1.3V97.5z"/>
	<path d="M99.5,102.5h-1.2v-4.7h-5.3v4.7h-1.2v-10h1.2v4.3h5.3v-4.3h1.2V102.5z"/>
	<path d="M105,102.5v-10h1.2v10H105z"/>
	<path d="M111.7,102.5v-10h1.2v8.9h4.4v1.1H111.7z"/>
	<path d="M128.1,102.5l-1.2-3.2h-4l-1.2,3.2h-1.2l4-10h1l3.9,10H128.1z M126.5,98.2l-1.2-3.1c-0.2-0.4-0.3-0.9-0.5-1.4
		c-0.1,0.4-0.2,0.9-0.4,1.4l-1.2,3.1H126.5z"/>
	<path d="M141.4,97.4c0,1.6-0.4,2.9-1.3,3.8s-2.2,1.3-3.9,1.3h-2.8v-10h3.1c1.6,0,2.8,0.4,3.6,1.3S141.4,95.8,141.4,97.4z
		 M140.2,97.4c0-1.3-0.3-2.3-1-2.9s-1.6-1-2.9-1h-1.7v8h1.4c1.4,0,2.4-0.3,3.1-1S140.2,98.7,140.2,97.4z"/>
	<path d="M152,102.5h-5.6v-10h5.6v1h-4.4v3.2h4.1v1h-4.1v3.7h4.4V102.5z"/>
	<path d="M157.1,102.5v-10h1.2v8.9h4.4v1.1H157.1z"/>
	<path d="M173.5,95.4c0,1-0.3,1.8-1,2.3s-1.7,0.8-3,0.8h-1.2v3.9h-1.2v-10h2.6C172.2,92.5,173.5,93.4,173.5,95.4z M168.3,97.5h1
		c1,0,1.8-0.2,2.2-0.5s0.7-0.9,0.7-1.6c0-0.7-0.2-1.2-0.6-1.5s-1.1-0.5-2-0.5h-1.3V97.5z"/>
	<path d="M185.9,102.5h-1.2v-4.7h-5.3v4.7h-1.2v-10h1.2v4.3h5.3v-4.3h1.2V102.5z"/>
	<path d="M191.5,102.5v-10h1.2v10H191.5z"/>
	<path d="M204.5,102.5l-1.2-3.2h-4l-1.2,3.2h-1.2l4-10h1l3.9,10H204.5z M202.9,98.2l-1.2-3.1c-0.2-0.4-0.3-0.9-0.5-1.4
		c-0.1,0.4-0.2,0.9-0.4,1.4l-1.2,3.1H202.9z"/>
	<path d="M220.6,93.4c-1.1,0-2,0.4-2.6,1.1c-0.6,0.7-1,1.7-1,3c0,1.3,0.3,2.3,0.9,3c0.6,0.7,1.5,1.1,2.6,1.1c0.7,0,1.5-0.1,2.4-0.4
		v1c-0.7,0.3-1.5,0.4-2.6,0.4c-1.5,0-2.6-0.4-3.4-1.3c-0.8-0.9-1.2-2.2-1.2-3.8c0-1,0.2-1.9,0.6-2.7c0.4-0.8,0.9-1.4,1.7-1.8
		c0.7-0.4,1.6-0.6,2.6-0.6c1,0,2,0.2,2.7,0.6l-0.5,1C222.1,93.5,221.3,93.4,220.6,93.4z"/>
	<path d="M235.5,102.5h-1.2v-4.7h-5.3v4.7h-1.2v-10h1.2v4.3h5.3v-4.3h1.2V102.5z"/>
	<path d="M247.3,102.5l-1.2-3.2h-4l-1.2,3.2h-1.2l4-10h1l3.9,10H247.3z M245.7,98.2l-1.2-3.1c-0.2-0.4-0.3-0.9-0.5-1.4
		c-0.1,0.4-0.2,0.9-0.4,1.4l-1.2,3.1H245.7z"/>
	<path d="M259,95.4c0,1-0.3,1.8-1,2.3c-0.7,0.5-1.7,0.8-3,0.8h-1.2v3.9h-1.2v-10h2.6C257.8,92.5,259,93.4,259,95.4z M253.9,97.5h1
		c1,0,1.8-0.2,2.2-0.5s0.7-0.9,0.7-1.6c0-0.7-0.2-1.2-0.6-1.5s-1.1-0.5-2-0.5h-1.3V97.5z"/>
	<path d="M267,102.5h-1.2v-9h-3.2v-1h7.5v1H267V102.5z"/>
	<path d="M280,102.5h-5.6v-10h5.6v1h-4.4v3.2h4.1v1h-4.1v3.7h4.4V102.5z"/>
	<path d="M286.2,98.3v4.2h-1.2v-10h2.7c1.2,0,2.1,0.2,2.7,0.7c0.6,0.5,0.9,1.2,0.9,2.1c0,1.3-0.7,2.2-2,2.7l2.7,4.5h-1.4l-2.4-4.2
		H286.2z M286.2,97.3h1.6c0.8,0,1.4-0.2,1.8-0.5s0.6-0.8,0.6-1.5c0-0.7-0.2-1.1-0.6-1.4c-0.4-0.3-1-0.4-1.9-0.4h-1.5V97.3z"/>
</g>
<g>
	<path class="st19" d="M44.9,200.4l8,5v0.4c0,0.1,0,0.3,0,0.3v0.5c0,0,0,0.1,0,0.2v0.1c0,2.7-1.4,5.2-4.2,7.4l-5,3.1
		c-1.4,0.9-2.6,2-3.4,3.3c0.7-0.3,1.6-0.6,2.7-0.9c0.9-0.3,1.9-0.4,2.8-0.5c0.1,0,0.3,0,0.4,0h0.4c0.1,0,0.3,0,0.4,0h0.8l0.5,0
		l0.9,0.1c0.1,0,0.3,0,0.6,0.1s0.4,0.1,0.5,0.1c1.3,0.4,2.4,0.7,3.1,1l-2.8,3.3l-3.5-1.2l-4.2-0.1c-0.1,0-0.6,0.2-1.2,0.3
		c-0.3,0.1-0.5,0.1-0.6,0.1l-0.6,0.1c-0.2,0-0.6,0.2-1.2,0.3c-0.2,0.1-0.5,0.1-0.8,0.2c0,0-0.1,0-0.2,0.1c-0.1,0-0.2,0-0.2,0
		c0.3-1.7,1-3.2,2.1-4.5c1.1-1.2,2.3-2.4,3.5-3.5l0.1-0.1l0.1-0.1c0.6-0.6,1.5-1.4,2.6-2.5c0.8-0.9,1.5-1.8,2.1-2.9
		c0-0.1,0.1-0.2,0.1-0.4c0,0,0-0.1,0.1-0.3c0.1-0.3,0.2-0.5,0.2-0.8c0-0.1,0-0.3,0.1-0.6c0-0.1,0-0.2,0-0.3v-0.5c0,0,0-0.1,0-0.2
		v-0.4c-0.1-0.6-0.3-1.2-0.6-1.8c-0.3-0.6-0.7-1.1-1.3-1.4l-6.3,4.9h-0.2l-2.1-2.1l-0.1-0.5L44.9,200.4z"/>
	<path class="st19" d="M64.4,200.6c4.3,1.7,6.9,4.5,7.9,8.6c0,0,0,0.1,0,0.1v0.1c0,0,0,0.1,0,0.2c0,0.2,0,0.3,0,0.4v1.1
		c0,1.7-0.3,3.4-0.9,5.1c-0.6,1.7-1.6,3.1-3,4.4l-3.1,2.9h-0.6c-0.5,0-1-0.2-1.5-0.5c-0.4-0.2-0.9-0.6-1.4-0.9
		c-0.1,0-0.2-0.1-0.3-0.2c0,0-0.1-0.1-0.1-0.1c0,0-0.1-0.1-0.1-0.1c0,0-0.1-0.1-0.2-0.1c-0.1-0.1-0.2-0.1-0.3-0.2
		c-1.2-1-2.1-2.2-2.8-3.6c-0.7-1.4-1-2.9-1-4.4V213c0,0.1,0-0.3,0.1-1.2c0-0.2,0-0.4,0.1-0.6c0-0.1,0.1-0.3,0.1-0.6
		c0.1-0.6,0.3-1.3,0.6-2.1c0.2-0.5,0.4-1.1,0.8-2C60.1,204.2,61.9,202.2,64.4,200.6L64.4,200.6z M62,203.9c-1.6,2.3-2.4,5-2.4,8
		l1.4,3.8c0.1,0.2,0.2,0.3,0.3,0.5c0.1,0.2,0.2,0.3,0.3,0.5c0.7,1,1.5,1.8,2.6,2.6c1,0.8,2.1,1.2,3.3,1.2c0,0,0-0.1,0.1-0.1
		s0.1-0.1,0.1-0.1c0.1-0.1,0.2-0.2,0.2-0.3c1.3-2.1,2-3.9,2-5.5v-0.4c0,0,0-0.1,0-0.1v-0.3c0-1.9-0.8-4-2.3-6.2
		C66.3,205.6,64.4,204.4,62,203.9L62,203.9z"/>
</g>
<g>
	<path class="st19" d="M310.4,200.1l2.4,2.1l0.5,1.4v15.6c0,0.1,0.1,0.3,0.3,0.6c0.1,0.2,0.3,0.3,0.4,0.4h0c0,0,0,0,0,0.1
		c0,0,0,0,0.1,0c0,0,0.1,0,0.1,0c0,0,0.1,0.1,0.1,0.1c0,0,0.1,0.1,0.2,0.1c0.1,0,0.2,0,0.3,0c0.2-0.1,0.5-0.3,0.7-0.6
		c0.3-0.3,0.5-0.5,0.6-0.7l0.5,0.5l-4.2,3.7l-3.8-3c0.5-0.3,0.8-0.9,1-1.9v-13.4c0,0-0.1-0.1-0.1-0.2c0-0.1,0-0.1-0.1-0.2
		c-0.1-0.4-0.3-0.8-0.7-1.2c-0.2-0.3-0.4-0.4-0.6-0.4l-1.5,1c0,0-0.1,0-0.2,0l-0.2-0.2L310.4,200.1z"/>
	<path class="st19" d="M328.4,200.1c1.5,1,2.4,2.1,2.8,3.4v9.6h3.2l0.7,2.7h-3.9v3.9l1.5,0.8l1.2-0.9c0,0.1,0,0.1,0.1,0.2
		c0,0,0.1,0.1,0.1,0.2c0.1,0.1,0.1,0.2,0.1,0.3l-3.7,3.2l-4-2.6c0.5-0.3,0.8-0.8,1-1.4c0.2-0.6,0.2-1.1,0.2-1.6v-2h-7.6l-1-2.9
		L328.4,200.1z M327,203.8l-6.7,9.2h7.3v-8.5L327,203.8z"/>
</g>
</svg>
